<svg width="121" height="44" viewBox="0 0 121 44" fill="none" xmlns="http://www.w3.org/2000/svg">
<g clip-path="url(#clip0_244_30793)">
<path d="M89.311 10.8622H89.2275V33.2016H89.311V10.8622Z" fill="#58595B"/>
<mask id="mask0_244_30793" style="mask-type:luminance" maskUnits="userSpaceOnUse" x="94" y="10" width="17" height="21">
<path d="M96.9834 12.5004C95.5678 13.8194 94.8496 15.5002 94.8496 17.5001C94.8496 19.1597 95.3355 20.7128 96.2862 22.1383C97.1102 23.351 98.5459 24.9041 100.722 26.8827L104.101 30.0741C104.714 30.5422 105.601 30.4358 106.087 29.8827C106.615 29.287 106.573 28.372 106.003 27.8189C104.249 26.2232 104.524 26.4573 102.771 24.8616C100.954 23.2234 99.6867 21.8404 98.9895 20.734C98.3346 19.7128 97.9966 18.6491 97.9966 17.5853C97.9966 16.3512 98.4191 15.3726 99.2642 14.5854C100.152 13.777 101.166 13.394 102.412 13.394C103.637 13.394 104.756 13.7131 105.707 14.3514C106.299 14.7769 106.911 15.3513 107.545 16.096C107.545 16.096 107.545 16.096 107.524 16.096C107.693 16.33 107.989 16.7768 108.115 17.4363C108.263 18.2873 108.01 18.9682 107.883 19.2235C108.369 19.2235 109.044 18.9894 109.593 18.3937C110.143 17.7768 110.84 15.5002 109.34 13.7131C108.96 13.2663 108.58 12.7345 107.397 11.9472C105.982 11.0111 104.228 10.5217 102.243 10.5217C100.173 10.5217 98.398 11.2026 96.9834 12.5004Z" fill="white"/>
</mask>
<g mask="url(#mask0_244_30793)">
<path d="M110.861 10.5217H94.8496V30.5209H110.861V10.5217Z" fill="url(#paint0_linear_244_30793)"/>
</g>
<mask id="mask1_244_30793" style="mask-type:luminance" maskUnits="userSpaceOnUse" x="94" y="10" width="17" height="10">
<path d="M96.9834 12.5004C95.5678 13.8194 94.8496 15.5002 94.8496 17.5001C94.8496 18.2235 94.9341 18.9256 95.1243 19.6065C95.1876 18.8618 95.3988 17.5853 96.2651 16.33C98.2923 13.4152 102.011 13.394 102.412 13.394C103.637 13.394 104.756 13.7131 105.707 14.3514C106.299 14.7769 106.911 15.3513 107.545 16.096C107.545 16.096 107.545 16.096 107.524 16.096C107.693 16.33 107.989 16.7768 108.115 17.4363C108.263 18.2873 108.01 18.9682 107.883 19.2235C108.369 19.2235 109.044 18.9894 109.593 18.3937C110.143 17.7768 110.84 15.5002 109.34 13.7131C108.96 13.2663 108.58 12.7345 107.397 11.9472C105.982 11.0111 104.228 10.5217 102.243 10.5217C100.173 10.5217 98.398 11.2026 96.9834 12.5004Z" fill="white"/>
</mask>
<g mask="url(#mask1_244_30793)">
<path d="M110.861 10.5217H94.8496V19.6065H110.861V10.5217Z" fill="url(#paint1_linear_244_30793)"/>
</g>
<mask id="mask2_244_30793" style="mask-type:luminance" maskUnits="userSpaceOnUse" x="105" y="10" width="16" height="24">
<path d="M113.564 10.5217C111.557 10.5217 109.826 10.9898 108.41 11.9472C108.009 12.2238 107.692 12.4578 107.439 12.6919C107.354 12.7557 107.27 12.8408 107.206 12.9046C106.889 13.2025 106.678 13.4791 106.488 13.7131C104.989 15.479 105.665 17.7768 106.234 18.3937C106.784 18.9894 107.46 19.2235 107.946 19.2235C107.84 18.9682 107.565 18.2873 107.713 17.4363C107.819 16.7768 108.136 16.33 108.305 16.096C108.918 15.3513 109.53 14.7556 110.143 14.3514C111.094 13.7131 112.212 13.394 113.438 13.394C114.663 13.394 115.698 13.777 116.586 14.5854C117.451 15.3726 117.852 16.3513 117.852 17.5853C117.852 18.6278 117.514 19.6916 116.86 20.7341C116.163 21.8191 114.895 23.202 113.079 24.8616L106.995 30.9677C106.995 30.9677 106.995 30.9677 106.974 30.989C106.72 31.2443 106.551 31.606 106.551 32.0102C106.551 32.8187 107.206 33.4783 108.009 33.4783C108.389 33.4783 108.748 33.3293 109.002 33.074L109.023 33.0527L109.044 33.0315L115.128 26.9041C117.303 24.9254 118.74 23.3723 119.564 22.1595C120.514 20.7341 121 19.1597 121 17.5215C121 15.5216 120.282 13.8408 118.866 12.5216C117.43 11.2026 115.656 10.5217 113.564 10.5217Z" fill="white"/>
</mask>
<g mask="url(#mask2_244_30793)">
<path d="M97.6587 13.2237L106.848 38.6483L128.288 30.7762L119.099 5.35172L97.6587 13.2237Z" fill="url(#paint2_linear_244_30793)"/>
</g>
<path d="M11.1109 10.862C8.30146 10.862 5.87228 11.8194 3.82332 13.6491C3.65433 13.798 3.48535 13.9469 3.31636 14.1171C1.11954 16.266 0 18.9254 0 22.0104C0 25.0742 1.14066 27.7123 3.27412 29.8825C4.75275 31.3717 6.44262 32.3717 8.36484 32.861C9.2309 33.0738 10.1392 33.1802 11.0897 33.1802C12.0403 33.1802 12.9698 33.0738 13.8358 32.861C14.0893 32.7972 14.3216 32.7334 14.554 32.6483C14.6385 32.6057 14.744 32.5845 14.8286 32.5419H14.8497C16.1594 32.0739 17.3423 31.3505 18.4407 30.3505L21.8627 32.8398L22.1795 33.0738V10.8406L18.4407 13.6703C16.3705 11.8194 13.9203 10.862 11.1109 10.862ZM15.8213 26.7762C14.8074 27.7975 13.6245 28.4144 12.2938 28.6272C11.9136 28.6911 11.5333 28.7335 11.1109 28.7335C9.25202 28.7335 7.68889 28.1166 6.37924 26.7974C5.0696 25.4784 4.45703 23.8827 4.45703 22.0317C4.45703 20.3296 4.96398 18.8616 6.0624 17.6063C6.16801 17.4787 6.2525 17.3723 6.37924 17.2446C7.68889 15.9256 9.25202 15.3086 11.1109 15.3086C12.9486 15.3086 14.5117 15.9468 15.8213 17.266C17.131 18.585 17.7647 20.1595 17.7647 22.0104C17.7647 23.8827 17.131 25.4571 15.8213 26.7762Z" fill="#EC1C24"/>
<path d="M51.5415 32.6483C52.6188 33.0099 53.7595 33.2014 54.9635 33.2014C56.1464 33.2014 57.3082 33.0099 58.4066 32.6483C59.2093 32.393 59.9697 32.0313 60.7301 31.5632C62.4411 30.4995 63.7931 29.074 64.7436 27.2868L65.166 26.4996L61.3005 24.3082L60.8569 25.1592C60.2865 26.2443 59.4839 27.1379 58.4278 27.7761C57.3715 28.4144 56.2309 28.7335 54.9846 28.7335C53.9074 28.7335 52.8934 28.5208 51.964 28.0102L61.5117 19.5212L64.7436 16.6489L64.3423 15.9894C63.3706 14.4362 61.9975 13.2235 60.4133 12.3087C59.2515 11.6491 58.0052 11.1811 56.6956 11.0109C56.1464 10.9044 55.5761 10.862 55.0058 10.862C54.71 10.862 54.4354 10.8832 54.1397 10.8832C51.4781 11.0747 49.1545 12.1598 47.2112 14.0959C45.0356 16.2659 43.916 18.9254 43.916 22.0104C43.916 23.7976 44.3173 25.4358 45.0567 26.9251C45.5848 27.9889 46.324 28.9676 47.1901 29.8612C48.4575 31.1802 49.915 32.1164 51.5415 32.6483ZM48.3942 20.9679C48.5842 19.5424 49.1757 18.3084 50.2318 17.2446C50.422 17.0745 50.591 16.883 50.781 16.7341H50.8022C51.9851 15.7553 53.3793 15.3086 54.9635 15.3086C56.2308 15.3086 57.3926 15.6276 58.4488 16.2873L48.9222 24.8188C48.5208 23.9252 48.3308 23.0104 48.3308 22.0104C48.3308 21.6488 48.3519 21.3083 48.3942 20.9679Z" fill="#EC1C24"/>
<path d="M37.4095 33.1377H41.8454V20.0319C41.8454 17.649 41.0427 15.5639 39.3528 13.8831C37.6841 12.2023 35.614 11.3939 33.227 11.3939C31.1358 11.3939 29.277 12.0534 27.7138 13.4151L24.6299 10.9045V33.1802H29.0658V20.0319C29.0658 18.8617 29.4671 17.883 30.2697 17.0745C31.0936 16.2448 32.0652 15.8618 33.2059 15.8618C34.3677 15.8618 35.3393 16.2448 36.1632 17.0533C37.0081 17.883 37.3672 18.883 37.3672 20.0531V33.1377H37.4095Z" fill="#EC1C24"/>
<path d="M83.6908 33.1802L76.5088 20.436L81.8953 10.862H76.6566L73.8683 15.7979L71.0801 10.862H65.8204L71.2702 20.436L64.0249 33.1802H69.2847L73.8683 25.0742L78.431 33.1802H83.6908Z" fill="#EC1C24"/>
</g>
<defs>
<linearGradient id="paint0_linear_244_30793" x1="94.8326" y1="20.5358" x2="110.237" y2="20.5358" gradientUnits="userSpaceOnUse">
<stop stop-color="#871719"/>
<stop offset="0.45" stop-color="#DA1F26"/>
<stop offset="1" stop-color="#F0564B"/>
</linearGradient>
<linearGradient id="paint1_linear_244_30793" x1="94.8326" y1="15.089" x2="110.237" y2="15.089" gradientUnits="userSpaceOnUse">
<stop stop-color="#F0564B"/>
<stop offset="0.55" stop-color="#DA1F26"/>
<stop offset="1" stop-color="#871719"/>
</linearGradient>
<linearGradient id="paint2_linear_244_30793" x1="109.141" y1="11.4451" x2="116.168" y2="30.6122" gradientUnits="userSpaceOnUse">
<stop stop-color="#EC1C24"/>
<stop offset="0.1279" stop-color="#EC1C24"/>
<stop offset="0.204" stop-color="#CB2037"/>
<stop offset="0.5673" stop-color="#2E3191"/>
<stop offset="1" stop-color="#2E3191"/>
</linearGradient>
<clipPath id="clip0_244_30793">
<rect width="121" height="44" fill="white"/>
</clipPath>
</defs>
</svg>
